HIERARCHY
ROOT Pelvis
{
	OFFSET 0.000000 0.000000 0.000000
	CHANNELS 6 Xposition Yposition Zposition Xrotation Yrotation Zrotation
	JOINT LeftUpLeg_virtual
	{
		OFFSET 0.000000 0.000000 0.000000
		CHANNELS 3 Xrotation Yrotation Zrotation
		JOINT LeftUpLeg
		{
			OFFSET 18.735201 -5.666702 -4.541200
			CHANNELS 3 Xrotation Yrotation Zrotation
			JOINT LeftLeg
			{
				OFFSET -0.021200 -31.938179 0.493100
				CHANNELS 3 Xrotation Yrotation Zrotation
				JOINT LeftFoot
				{
					OFFSET 0.021200 -31.938179 -4.336299
					CHANNELS 3 Xrotation Yrotation Zrotation
					JOINT LeftToeBase
					{
						OFFSET 0.943001 -26.722000 15.023500
						CHANNELS 3 Xrotation Yrotation Zrotation
						End Site
						{
							OFFSET 0 0 0
						}
					}
				}
			}
		}
	}
	JOINT RightUpLeg_virtual
	{
		OFFSET 0.000000 0.000000 0.000000
		CHANNELS 3 Xrotation Yrotation Zrotation
		JOINT RightUpLeg
		{
			OFFSET -18.735201 -5.666702 -4.541200
			CHANNELS 3 Xrotation Yrotation Zrotation
			JOINT RightLeg
			{
				OFFSET 0.018946 -31.938133 0.493100
				CHANNELS 3 Xrotation Yrotation Zrotation
				JOINT RightFoot
				{
					OFFSET -0.018946 -31.938126 -4.336299
					CHANNELS 3 Xrotation Yrotation Zrotation
					JOINT RightToeBase
					{
						OFFSET -0.943001 -26.722004 15.023500
						CHANNELS 3 Xrotation Yrotation Zrotation
						End Site
						{
							OFFSET 0 0 0
						}
					}
				}
			}
		}
	}
	JOINT Hips_virtual
	{
		OFFSET 0.000000 0.000000 0.000000
		CHANNELS 3 Xrotation Yrotation Zrotation
		JOINT Hips
		{
			OFFSET -0.000000 -0.000000 -0.000000
			CHANNELS 3 Xrotation Yrotation Zrotation
			JOINT Spine
			{
				OFFSET 0.000000 10.199997 -0.299500
				CHANNELS 3 Xrotation Yrotation Zrotation
				JOINT Spine1
				{
					OFFSET 0.000000 11.900002 -1.516600
					CHANNELS 3 Xrotation Yrotation Zrotation
					JOINT Spine2
					{
						OFFSET 0.000000 13.600006 -2.842500
						CHANNELS 3 Xrotation Yrotation Zrotation
						JOINT Neck_virtual
						{
							OFFSET 0.000000 0.000000 0.000000
							CHANNELS 3 Xrotation Yrotation Zrotation
							JOINT Neck
							{
								OFFSET 0.000000 9.624100 -2.890100
								CHANNELS 3 Xrotation Yrotation Zrotation
								JOINT Head
								{
									OFFSET 0.000000 14.068802 -1.351900
									CHANNELS 3 Xrotation Yrotation Zrotation
									End Site
									{
										OFFSET 0 0 0
									}
								}
							}
						}
						JOINT LeftShoulder_virtual
						{
							OFFSET 0.000000 0.000000 0.000000
							CHANNELS 3 Xrotation Yrotation Zrotation
							JOINT LeftShoulder
							{
								OFFSET 15.263000 10.923401 -0.547700
								CHANNELS 3 Xrotation Yrotation Zrotation
								JOINT LeftArm
								{
									OFFSET 25.438599 -2.830597 -13.032500
									CHANNELS 3 Xrotation Yrotation Zrotation
									JOINT LeftForeArm
									{
										OFFSET 29.960503 0.000000 0.000000
										CHANNELS 3 Xrotation Yrotation Zrotation
										JOINT LeftHand
										{
											OFFSET 27.849251 0.000000 0.000000
											CHANNELS 3 Xrotation Yrotation Zrotation
											End Site
											{
												OFFSET 0 0 0
											}
										}
									}
								}
							}
						}
						JOINT RightShoulder_virtual
						{
							OFFSET 0.000000 0.000000 0.000000
							CHANNELS 3 Xrotation Yrotation Zrotation
							JOINT RightShoulder
							{
								OFFSET -15.263000 10.923401 -0.547700
								CHANNELS 3 Xrotation Yrotation Zrotation
								JOINT RightArm
								{
									OFFSET -25.438599 -2.830597 -13.032500
									CHANNELS 3 Xrotation Yrotation Zrotation
									JOINT RightForeArm
									{
										OFFSET -29.960503 0.000000 0.000000
										CHANNELS 3 Xrotation Yrotation Zrotation
										JOINT RightHand
										{
											OFFSET -27.849251 0.000000 0.000000
											CHANNELS 3 Xrotation Yrotation Zrotation
											End Site
											{
												OFFSET 0 0 0
											}
										}
									}
								}
							}
						}
					}
				}
			}
		}
	}
}
MOTION
Frames: 9
Frame Time: 0.03333333
-10.639937 81.892235 12.214016 0.000000 0.000000 0.000000 -3.226258 -70.832408 -1.395026 -36.075300 7.145201 30.188507 48.230674 -8.433793 5.169132 -12.720029 -9.191132 -28.418464 0.000000 0.000000 0.000000 -4.141601 -70.169648 -1.766460 -29.613815 14.709480 -26.397684 56.016249 -11.746991 2.670279 -30.728447 5.038101 25.007305 0.000000 0.000000 0.000000 -1.637837 -68.549575 0.162358 -0.852974 0.064586 0.055949 18.814436 -2.362841 1.551096 6.477317 -3.648353 -7.911890 0.000000 0.000000 0.000000 6.470455 -2.297723 -7.362214 -5.904670 -5.131679 1.747922 0.000000 0.000000 0.000000 9.916579 -2.929020 -5.096109 -20.382639 0.558974 -2.901250 -25.983742 13.782700 -23.327218 -4.733569 -29.871112 -17.041918 0.000000 0.000000 0.000000 5.661932 -1.279608 -8.255130 -22.987903 -1.132849 -1.134728 2.982663 -46.289626 62.737562 -169.601274 42.007706 165.389834 0.000000 0.000000 0.000000 
-11.036191 82.201035 12.236328 0.000000 0.000000 0.000000 -3.629393 -70.069490 -1.710152 -35.828263 6.622200 30.053543 48.092748 -8.531692 5.113670 -11.978525 -10.338434 -28.488258 0.000000 0.000000 0.000000 -4.681760 -69.453284 -2.285258 -28.360624 13.346769 -27.085172 54.929204 -11.780418 2.813128 -29.349060 4.104925 26.631871 0.000000 0.000000 0.000000 -2.091586 -68.087683 -0.021200 -0.852974 0.135731 0.056635 17.800033 -2.388398 2.314037 6.243405 -3.666008 -7.178442 0.000000 0.000000 0.000000 6.087700 -2.246072 -6.587878 -5.686070 -5.509569 2.190307 0.000000 0.000000 0.000000 9.692743 -2.871942 -4.754254 -19.957855 0.765207 -3.886168 -25.198284 13.936936 -25.962241 -4.865296 -34.223776 -17.125338 0.000000 0.000000 0.000000 5.264341 -1.224716 -7.729132 -23.231297 -2.667321 -0.337430 0.979859 -49.932976 54.757770 -168.733335 38.511735 165.565233 0.000000 0.000000 0.000000 
-11.726310 82.935692 12.567020 0.000000 0.000000 0.000000 -4.835910 -68.140706 -2.667273 -34.520493 5.546946 28.977631 46.541076 -8.654927 4.845282 -10.126905 -11.306705 -28.622802 0.000000 0.000000 0.000000 -5.939194 -67.587078 -3.308716 -24.628742 10.454598 -27.809450 51.828507 -12.904404 2.138566 -26.510954 2.612454 27.557643 0.000000 0.000000 0.000000 -3.334315 -66.543692 -0.893815 -0.805881 0.176274 0.020474 15.972662 -1.926648 3.342553 5.765992 -3.563514 -5.411159 0.000000 0.000000 0.000000 5.741881 -2.003591 -4.818440 -5.195913 -6.047857 2.666096 0.000000 0.000000 0.000000 8.821974 -2.615839 -3.455388 -19.789237 1.745317 -5.853753 -21.970743 13.550260 -30.233559 -4.671827 -40.858045 -17.003384 0.000000 0.000000 0.000000 4.471657 -0.932812 -5.990786 -23.150624 -3.335718 2.057654 2.267718 -57.785921 46.855361 -167.436596 32.162528 166.482255 0.000000 0.000000 0.000000 
-12.473028 83.804062 13.389271 0.000000 0.000000 0.000000 -6.466193 -65.178795 -3.858683 -32.632062 4.060904 27.012765 44.369899 -8.597487 4.478978 -7.866488 -11.511234 -28.238493 0.000000 0.000000 0.000000 -7.557707 -64.754838 -4.471105 -18.613457 6.648559 -28.287821 46.937794 -15.082936 0.669132 -23.709289 0.274555 27.192243 0.000000 0.000000 0.000000 -5.170459 -63.836895 -2.236242 -0.770124 0.130436 -0.040592 13.883653 -1.148919 4.175830 4.986592 -3.339217 -3.079290 0.000000 0.000000 0.000000 5.359854 -1.627182 -2.492125 -4.647798 -6.631932 3.137818 0.000000 0.000000 0.000000 7.394964 -2.233255 -1.564978 -19.883278 3.360459 -8.057496 -16.860394 12.378068 -34.508240 -3.977398 -48.802518 -16.635016 0.000000 0.000000 0.000000 3.562489 -0.453641 -3.535312 -22.787628 -3.506176 5.142976 8.056693 -68.904362 44.147201 -165.690431 25.974598 167.648837 0.000000 0.000000 0.000000 
-13.139999 84.535797 14.578651 0.000000 0.000000 0.000000 -8.161823 -61.568602 -4.892753 -30.412886 2.114194 24.121095 42.252237 -8.550091 4.200290 -6.490465 -10.850142 -27.586702 0.000000 0.000000 0.000000 -9.229173 -61.228459 -5.396933 -11.057121 2.844686 -28.309543 40.989113 -17.596138 -1.620321 -20.425662 -2.289615 26.258852 0.000000 0.000000 0.000000 -7.228447 -60.254016 -3.614388 -0.751139 0.050325 -0.083047 11.867387 -0.144700 4.519082 3.986206 -3.023000 -0.739800 0.000000 0.000000 0.000000 4.750390 -1.170506 -0.157825 -4.296846 -7.205129 3.565594 0.000000 0.000000 0.000000 5.736578 -1.832235 0.495184 -20.177485 5.129474 -9.536985 -10.823105 10.120398 -37.106755 -2.295883 -56.754159 -15.814868 0.000000 0.000000 0.000000 2.922903 0.064653 -1.055162 -22.155329 -3.919410 7.658376 28.928433 -80.446077 61.273163 -163.445785 21.864120 168.622344 0.000000 0.000000 0.000000 
-13.577388 84.980881 16.311188 0.000000 0.000000 0.000000 -9.748916 -57.757009 -5.568694 -28.144466 -0.227696 20.580917 40.460862 -8.664578 3.927661 -6.419278 -9.631471 -27.179794 0.000000 0.000000 0.000000 -10.713774 -57.246520 -5.883412 -3.455111 -0.216537 -27.852263 35.266948 -19.613165 -4.263191 -15.961462 -4.186002 25.975892 0.000000 0.000000 0.000000 -9.412779 -56.392747 -4.815119 -0.758667 0.004748 -0.080319 10.258644 1.041897 4.259917 2.984955 -2.619516 1.182242 0.000000 0.000000 0.000000 3.736363 -0.800298 1.736185 -4.365529 -7.639571 3.834546 0.000000 0.000000 0.000000 4.173328 -1.528764 2.392207 -20.569658 6.491968 -9.328077 -5.669279 7.297297 -37.048640 0.716277 -63.042701 -14.199730 0.000000 0.000000 0.000000 2.753916 0.517673 0.952332 -21.252410 -4.686823 8.912819 109.314186 -83.148599 145.093326 -160.492411 21.443918 168.816240 0.000000 0.000000 0.000000 
-13.737447 85.193695 18.451431 0.000000 0.000000 0.000000 -11.142623 -53.969771 -5.844151 -26.421670 -2.362721 16.959788 39.394574 -8.867902 3.371429 -6.930421 -8.098770 -27.133609 0.000000 0.000000 0.000000 -12.025204 -53.105861 -6.007116 2.671514 -2.305539 -27.341088 31.195673 -20.952712 -6.456359 -10.784449 -5.150922 26.238616 0.000000 0.000000 0.000000 -11.480474 -52.473871 -5.622206 -0.792883 0.010216 -0.024361 9.043447 2.262006 3.485962 2.096596 -2.157647 2.557837 0.000000 0.000000 0.000000 2.373718 -0.563260 3.003676 -4.880527 -7.902968 3.891710 0.000000 0.000000 0.000000 3.046366 -1.253387 3.925836 -20.889365 7.206930 -7.448583 -2.498946 4.118121 -35.042371 5.029527 -65.847470 -11.729482 0.000000 0.000000 0.000000 3.176714 0.884013 2.261891 -20.094379 -5.900907 8.718783 133.266908 -77.698162 179.240433 -156.698091 25.091156 168.006166 0.000000 0.000000 0.000000 
-13.735393 85.354431 20.666054 0.000000 0.000000 0.000000 -12.254753 -50.457234 -5.749700 -25.567362 -3.978174 13.610484 39.188996 -9.034558 2.529054 -7.396613 -6.379326 -27.015901 0.000000 0.000000 0.000000 -13.048801 -49.209478 -5.789941 6.987271 -3.603412 -26.947620 28.896311 -21.851075 -7.874021 -5.881023 -5.374364 26.175175 0.000000 0.000000 0.000000 -13.056842 -48.936157 -5.893810 -0.846228 0.073041 0.032827 8.069289 3.296351 2.553617 1.583807 -1.766859 3.495730 0.000000 0.000000 0.000000 1.012095 -0.486216 3.700850 -5.735503 -8.015966 3.683271 0.000000 0.000000 0.000000 2.507626 -1.014551 5.076602 -20.877542 7.290854 -4.606859 -1.926918 0.830534 -32.788808 9.159226 -63.224329 -9.697823 0.000000 0.000000 0.000000 3.865367 1.089474 2.983270 -18.777339 -7.482903 7.542519 131.557284 -76.228545 -168.783878 -151.132702 32.760159 165.103745 0.000000 0.000000 0.000000 
-13.565309 85.620758 22.784964 0.000000 0.000000 0.000000 -12.941108 -47.462028 -5.364881 -25.418800 -5.072052 10.618627 39.599821 -9.135802 1.651672 -7.021890 -4.630411 -26.393485 0.000000 0.000000 0.000000 -13.626256 -45.976250 -5.337722 9.920545 -4.053437 -26.715414 27.724561 -22.458830 -8.726465 -1.745985 -5.158286 25.605493 0.000000 0.000000 0.000000 -14.002844 -46.039426 -5.756673 -0.864176 0.112759 0.048068 7.109445 3.886449 1.803659 1.505470 -1.516707 4.186577 0.000000 0.000000 0.000000 0.069572 -0.510023 4.081257 -6.654742 -7.936307 3.187900 0.000000 0.000000 0.000000 2.494410 -0.850727 5.962651 -20.396743 6.784457 -1.679556 -3.965673 -1.990742 -31.919024 11.312546 -55.670878 -9.619445 0.000000 0.000000 0.000000 4.474995 1.140406 3.376979 -17.503982 -8.687684 6.502885 128.763546 -80.026444 -160.009817 -142.145580 43.626812 158.358660 0.000000 0.000000 0.000000 
